#N canvas 415 402 450 300 10;
#X obj 126 53 midiin;
#X floatatom 126 75 5 0 0 0 - - -, f 5;
#X floatatom 172 71 5 0 0 0 - - -, f 5;
#X obj 173 263 noteout 1;
#X obj 194 166 * -1;
#X obj 194 188 + 127;
#X floatatom 194 210 5 0 0 0 - - -, f 5;
#X floatatom 106 182 5 0 0 0 - - -, f 5;
#X obj 256 93 tgl 15 0 empty empty empty 17 7 0 10 -262144 -1 -1 1
1;
#X obj 42 36 notein;
#X floatatom 42 58 5 0 0 0 - - -, f 5;
#X floatatom 40 87 5 0 0 0 - - -, f 5;
#X floatatom 54 116 5 0 0 0 - - -, f 5;
#X obj 169 121 tellertje;
#X msg 159 223 127;
#X msg 57 241 60;
#X obj 169 143 % 10;
#X obj 168 166 + 55;
#X floatatom 71 219 5 0 0 0 - - -, f 5;
#X obj 258 114 metro 100;
#X connect 0 0 1 0;
#X connect 0 1 2 0;
#X connect 4 0 5 0;
#X connect 5 0 6 0;
#X connect 7 0 14 0;
#X connect 8 0 19 0;
#X connect 9 0 10 0;
#X connect 9 1 11 0;
#X connect 9 2 12 0;
#X connect 13 0 16 0;
#X connect 14 0 3 1;
#X connect 15 0 3 0;
#X connect 16 0 4 0;
#X connect 16 0 7 0;
#X connect 16 0 17 0;
#X connect 17 0 3 0;
#X connect 17 0 18 0;
#X connect 19 0 13 0;
