#N canvas 194 158 848 443 10;
#X obj 495 116 osc~ 100;
#X obj 320 406 dac~;
#X obj 245 -61 testpatch;
#X obj 651 430 env~;
#X obj 651 452 vsl 15 128 0 127 0 0 empty empty empty 0 -9 0 10 -262144
-1 -1 6917 1;
#X obj 471 430 env~;
#X obj 471 452 vsl 15 128 0 127 0 0 empty empty empty 0 -9 0 10 -262144
-1 -1 5039 1;
#X obj 175 456 *~ 100000;
#X text 465 178 grainer harder;
#X text 574 188 dry zachter;
#X obj 461 367 *~ 10;
#X obj 152 -41 GrainverbV2;
#X connect 2 0 11 1;
#X connect 3 0 4 0;
#X connect 5 0 6 0;
#X connect 7 0 1 0;
#X connect 10 0 3 0;
#X connect 11 1 1 0;
#X connect 11 1 5 0;
#X connect 11 2 10 0;
#X connect 11 2 1 1;
